/vscmnt/brussel_pixiu_data/_data_brussel/112/vsc11236/PredSimResults/SUBJ07mtu3D/worker1.mot
version=1
nRows=11
nColumns=50
inDegrees=yes
endheader
                time	         pelvis_tilt	         pelvis_list	     pelvis_rotation	           pelvis_tx	           pelvis_ty	           pelvis_tz	       hip_flexion_r	     hip_adduction_r	      hip_rotation_r	        knee_angle_r	       ankle_angle_r	         mtp_angle_r	       hip_flexion_l	     hip_adduction_l	      hip_rotation_l	        knee_angle_l	       ankle_angle_l	         mtp_angle_l	    lumbar_extension	      lumbar_bending	     lumbar_rotation	 ercspn_r/activation	 intobl_r/activation	 extobl_r/activation	    abd_r/activation	    add_r/activation	hamstrings_r/activation	bifemsh_r/activation	glut_max_r/activation	iliopsoas_r/activation	rect_fem_r/activation	  vasti_r/activation	gastroc_r/activation	 soleus_r/activation	tib_ant_r/activation	 ercspn_l/activation	 intobl_l/activation	 extobl_l/activation	    abd_l/activation	    add_l/activation	hamstrings_l/activation	bifemsh_l/activation	glut_max_l/activation	iliopsoas_l/activation	rect_fem_l/activation	  vasti_l/activation	gastroc_l/activation	 soleus_l/activation	tib_ant_l/activation	
          1.62701272	         -7.93957057	          1.84017297	         -9.15281108	          1.98495551	          0.84952565	          0.01203057	         -8.33186393	         -0.49563181	          3.44865923	        -11.28501068	          8.39297911	         27.20897349	         30.78779916	         -0.53269677	         -2.36460538	         -1.78925763	          6.60404018	          0.26383881	         -6.56239539	          0.13258448	          3.66998525	          0.02744266	          0.00999999	          0.01000000	          0.05302415	          0.00999999	          0.00999999	          0.10688640	          0.02054017	          0.01646310	          0.01394243	          0.00999999	          0.18793060	          0.27520785	          0.01435200	          0.08020648	          0.21022037	          0.01019211	          0.05814848	          0.07453156	          0.03477605	          0.18372519	          0.02430314	          0.06372024	          0.01000001	          0.01000000	          0.01069822	          0.00999999	          0.27741037	
          1.63785947	         -7.94373044	          1.68036574	         -8.96933549	          2.00065089	          0.84754397	          0.01237064	         -8.98242634	         -0.37367274	          2.83964849	        -12.08771746	          7.60748016	         28.61397497	         30.78304812	         -0.40518205	         -2.06825162	         -3.49291594	          6.25866184	          0.25646488	         -6.33494883	         -0.29765852	          3.76673943	          0.05858305	          0.01000000	          0.01180813	          0.04490607	          0.01262809	          0.01949725	          0.09052192	          0.01739543	          0.01394258	          0.01180782	          0.01180777	          0.15915812	          0.25502516	          0.01215469	          0.06792674	          0.17803529	          0.01000000	          0.05394643	          0.07302096	          0.03463681	          0.15559659	          0.08096534	          0.05396457	          0.01000000	          0.01000000	          0.02295450	          0.01656136	          0.28158214	
          1.64870622	         -7.94448109	          1.54789921	         -8.73046631	          2.01649365	          0.84571054	          0.01268479	         -9.48645440	         -0.26525837	          2.18996094	        -13.17121835	          6.75801346	         29.93104064	         30.67124100	         -0.29704076	         -1.80334589	         -5.17863998	          5.91266400	          0.24622636	         -6.09617188	         -0.78056075	          3.83657079	          0.07454674	          0.00999999	          0.01000029	          0.03803087	          0.01069471	          0.01651219	          0.07666287	          0.01473217	          0.01180802	          0.01000005	          0.00999999	          0.13479076	          0.23159063	          0.01029379	          0.06171005	          0.15077780	          0.01000000	          0.11449634	          0.06676128	          0.04245305	          0.13177454	          0.10329778	          0.04570251	          0.00999999	          0.00999999	          0.01944013	          0.01402579	          0.33041330	
          1.65955297	         -7.94550889	          1.42268113	         -8.43800332	          2.03227363	          0.84425045	          0.01292015	         -9.76447592	         -0.15206742	          1.50326336	        -14.63399480	          5.79844085	         31.09989846	         30.49592375	         -0.18073138	         -1.60281756	         -6.71346257	          5.50347104	          0.22585901	         -5.87346432	         -1.28270505	          3.88099580	          0.11724344	          0.00999999	          0.01000000	          0.03220829	          0.01066921	          0.01610742	          0.06492567	          0.01247665	          0.01000022	          0.01000001	          0.01088677	          0.11415408	          0.19624125	          0.00999999	          0.06507407	          0.12769348	          0.01000000	          0.17054043	          0.08936087	          0.04132286	          0.11159966	          0.13805583	          0.03870538	          0.00999999	          0.00999999	          0.01646381	          0.01187842	          0.34843839	
          1.67039972	         -7.94730745	          1.30959238	         -8.10047613	          2.04785214	          0.84333899	          0.01306602	         -9.75569575	         -0.04561351	          0.77992162	        -16.55197916	          4.73065309	         31.97936758	         30.30973211	         -0.04551455	         -1.43531932	         -8.23192239	          5.28088780	          0.20704965	         -5.67674518	         -1.80242279	          3.90558625	          0.15151174	          0.00999999	          0.01000000	          0.02727715	          0.02532633	          0.01364140	          0.05498545	          0.01056645	          0.01000004	          0.01000000	          0.01000001	          0.09667690	          0.16619640	          0.00999999	          0.07118310	          0.10814340	          0.01000000	          0.21361957	          0.11384049	          0.04076796	          0.09451357	          0.17210404	          0.03277952	          0.01000000	          0.00999999	          0.01394318	          0.01005982	          0.35541064	
          1.68124647	         -7.94961220	          1.20065625	         -7.72172176	          2.06315038	          0.84309237	          0.01312735	         -9.41284808	          0.05504342	          0.00873093	        -18.98829682	          3.55835442	         32.40260848	         30.11993405	          0.09976800	         -1.28582743	         -9.73671301	          5.24448584	          0.18974297	         -5.50931572	         -2.32624532	          3.91239201	          0.17817377	          0.00999999	          0.01000000	          0.02310097	          0.04716415	          0.01155311	          0.04656709	          0.00999999	          0.01180771	          0.01000000	          0.00999999	          0.08187551	          0.14075146	          0.00999999	          0.07315134	          0.09158648	          0.01000000	          0.23871845	          0.13106274	          0.03995023	          0.08004340	          0.19525181	          0.02776093	          0.01000000	          0.03588530	          0.01180846	          0.01000000	          0.34733988	
          1.69209322	         -7.95237590	          1.08573416	         -7.30390897	          2.07813467	          0.84358231	          0.01311771	         -8.70669021	          0.14772614	         -0.81715952	        -21.96907740	          2.23406942	         32.25840698	         29.88193673	          0.24647081	         -1.12794010	        -11.13308170	          5.34506423	          0.17676262	         -5.37068850	         -2.84026403	          3.90215935	          0.18396597	          0.01086951	          0.01000000	          0.01956418	          0.05043590	          0.01870575	          0.03943760	          0.00999999	          0.01000002	          0.01000000	          0.01000002	          0.06934024	          0.11920219	          0.00999999	          0.06195177	          0.07756444	          0.01000000	          0.24381398	          0.13301419	          0.03948297	          0.06778863	          0.18083299	          0.02351068	          0.01000000	          0.05655563	          0.01000059	          0.01392818	          0.33175034	
          1.70293998	         -7.95562093	          0.96196716	         -6.85569958	          2.09280234	          0.84475512	          0.01304433	         -7.63699087	          0.21577621	         -1.67753332	        -25.44938614	          0.64049502	         31.56864513	         29.56315414	          0.39376334	         -0.91924216	        -12.35236888	          5.52007056	          0.16923573	         -5.25931810	         -3.33695890	          3.87940543	          0.17534632	          0.04639089	          0.00999999	          0.01656887	          0.04271408	          0.01584188	          0.03339964	          0.00999999	          0.01000022	          0.01000000	          0.00999999	          0.05872414	          0.10095214	          0.00999999	          0.05602067	          0.06568920	          0.01000001	          0.23191664	          0.11608380	          0.04513534	          0.05741008	          0.15903260	          0.01991116	          0.01000000	          0.08284530	          0.01000014	          0.01394233	          0.31533772	
          1.71378673	         -7.95970552	          0.81661797	         -6.38881313	          2.10715894	          0.84645996	          0.01290636	         -6.22923921	          0.25582081	         -2.53830917	        -29.35415455	         -1.17761014	         30.14699735	         29.13588135	          0.52685921	         -0.64673241	        -13.33901556	          5.72000018	          0.16654693	         -5.17730106	         -3.79315623	          3.84184053	          0.16825275	          0.08918188	          0.00999999	          0.01403215	          0.03617449	          0.01341646	          0.02828611	          0.00999999	          0.01000015	          0.01000000	          0.00999999	          0.04973338	          0.08549621	          0.05270230	          0.04744382	          0.05563208	          0.01000001	          0.22414746	          0.09831118	          0.04894565	          0.04862051	          0.13852693	          0.01686273	          0.01000000	          0.10655025	          0.01000003	          0.01180775	          0.30235692	
          1.72463348	         -7.96459377	          0.64407224	         -5.91438115	          2.12118902	          0.84848886	          0.01270508	         -4.53238786	          0.27242396	         -3.36083245	        -33.61557150	         -2.87634491	         27.58844816	         28.58521671	          0.63357799	         -0.32269063	        -14.06153951	          5.92073361	          0.16803108	         -5.12885727	         -4.19193653	          3.78252431	          0.17561334	          0.13034110	          0.01000002	          0.01188380	          0.03063611	          0.01136238	          0.02395546	          0.00999999	          0.01000001	          0.01000006	          0.01000003	          0.04211912	          0.07240660	          0.16030443	          0.04018009	          0.04711472	          0.01000000	          0.22443945	          0.08325958	          0.05011055	          0.04117664	          0.13471194	          0.01428102	          0.00999999	          0.12528978	          0.01000000	          0.01000000	          0.29108741	
          1.73548023	         -7.96992793	          0.45444281	         -5.43770763	          2.13487732	          0.85065071	          0.01245109	         -2.63927375	          0.28689818	         -4.09049377	        -38.06245926	         -3.77032273	         24.15168610	         27.91381335	          0.71563850	          0.02370619	        -14.52370271	          6.13605535	          0.17359936	         -5.11462722	         -4.53557842	          3.69193201	          0.18128686	          0.12713067	          0.04006849	          0.01006438	          0.02594568	          0.00999999	          0.02028798	          0.00999999	          0.01000003	          0.01128841	          0.00999999	          0.03567062	          0.06132103	          0.17132859	          0.03402846	          0.03990138	          0.01000000	          0.21124371	          0.07051241	          0.05302025	          0.03487243	          0.12493523	          0.01209457	          0.00999999	          0.13610230	          0.01000000	          0.01000000	          0.27847523	
